<?xml version="1.0" encoding="UTF-8" standalone="no"?>
<!-- Created with Inkscape (http://www.inkscape.org/) -->

<svg
   xmlns:dc="http://purl.org/dc/elements/1.1/"
   xmlns:cc="http://creativecommons.org/ns#"
   xmlns:rdf="http://www.w3.org/1999/02/22-rdf-syntax-ns#"
   xmlns:svg="http://www.w3.org/2000/svg"
   xmlns="http://www.w3.org/2000/svg"
   version="1.1"
   width="35.095531"
   height="40.497543"
   id="svg2">
  <defs
     id="defs4" />
  <metadata
     id="metadata7">
    <rdf:RDF>
      <cc:Work
         rdf:about="">
        <dc:format>image/svg+xml</dc:format>
        <dc:type
           rdf:resource="http://purl.org/dc/dcmitype/StillImage" />
        <dc:title></dc:title>
      </cc:Work>
    </rdf:RDF>
  </metadata>
  <g
     transform="translate(-95.542943,-91.236743)"
     id="layer1">
    <g
       transform="matrix(0.03023193,0.02916698,-0.02916698,0.03023193,124.82906,92.47128)"
       id="g3774">
      <path
         d="m -278.57143,606.90787 48.72009,-11.42508 c 0,0 41.87985,-6.87205 62.70848,-4.54918 44.0154,4.90873 85.473658,23.56713 127.14286,38.57143 35.945859,12.94343 70.294427,29.96542 105.714286,44.28571 27.956144,11.3027 54.983254,25.73934 84.285714,32.85715 26.52159,6.44231 54.13845,8.18791 81.42857,8.57143 37.24891,0.52348 74.80154,-1.7732 111.42857,-8.57143 37.62487,-6.98343 73.80768,-20.42673 110,-32.85715 45.91544,-15.76988 90.87857,-34.23795 135.71429,-52.85714 37.01713,-15.37232 79.54156,-22.5165 110,-48.57143 6.02251,-5.15181 5.02906,-18.76188 12.85714,-20 6.68484,-1.0573 13.52673,6.45249 15.71429,12.85715 2.05349,6.01215 -1.28125,12.97357 -4.28572,18.57142 -17.6817,32.94414 -49.60159,56.14147 -77.14285,81.42858 C 612.51731,695.69926 577.19927,724.06335 540,749.50504 500.89944,776.24708 460.24019,801.27119 417.14286,820.93361 363.57429,845.37336 307.30802,864.56039 250,878.07647 c -24.31806,5.73541 -49.30627,9.46097 -74.28571,10 -31.55083,0.68083 -63.1107,-3.6687 -94.285719,-8.57143 C 42.855043,873.43878 4.6965554,864.48824 -32.857143,853.79075 -69.210422,843.43521 -105.87123,832.89675 -140,816.6479 c -25.29395,-12.04256 -49.86551,-26.4016 -71.42857,-44.28572 -23.34886,-19.36523 -61.42857,-67.14285 -61.42857,-67.14285 l -12.85715,-31.42858 0,-47.14285 7.14286,-17.14286 z"
         id="path3776"
         style="fill:#ff1e1e;fill-opacity:1;stroke:#221f1a;stroke-width:7.21569586;stroke-linecap:butt;stroke-linejoin:miter;stroke-miterlimit:4;stroke-opacity:1;stroke-dasharray:none" />
      <path
         d="m 631.75,658.78125 -1.55869,1.02173 -7.86691,10.90816 -11.00593,1.285 -21.43474,-0.17285 L 488.03125,658.96875 437.25,660.75 c 16.52038,4.43104 33.34429,7.83763 50.1875,10.6875 24.63284,4.16787 49.64968,6.44507 74.625,7.0625 20.72031,0.51224 42.35973,3.52488 62.09375,-2.8125 3.3532,-1.07684 7.3802,-2.5611 8.875,-5.75 1.58619,-3.38387 1.75558,-8.9866 -1.28125,-11.15625 z"
         transform="matrix(1.2982276,-1.2524962,1.2524962,1.2982276,-933.7684,488.34318)"
         id="path3949"
         style="fill:#000000;fill-opacity:0.12765958;stroke:none" />
      <path
         d="m 454.75,531.875 14.09375,23.15625 32.84375,16.25 55.375,16.25 20.85961,-0.3934 12.45289,-10.7316 c -3.53113,-1.6102 -8.12194,3.62417 -12.28125,3.375 C 555.91411,578.45253 536.21579,564.9274 515.53125,556.8125 495.14919,548.81627 474.77168,540.73405 454.75,531.875 z"
         transform="matrix(1.2982276,-1.2524962,1.2524962,1.2982276,-778.09376,543.76654)"
         id="path3985"
         style="fill:#ffffff;fill-opacity:0.15957444;stroke:none" />
      <path
         d="m 182.0625,336.1875 -1.875,4.71875 c 0,0 -3.20515,33.725 -1.34375,50.4375 1.71903,15.43427 6.01292,30.61645 11.46875,45.15625 7.36148,19.61834 17.92027,37.93907 28.4375,56.0625 10.86452,18.72188 22.66485,36.95196 35.71875,54.21875 10.55013,13.95497 21.46337,27.84667 34.3125,39.71875 10.17292,9.39937 21.55963,17.52202 33.46875,24.59375 25.48803,15.135 52.43118,28.07959 80.21875,38.46875 L 366.4375,617 298.93304,562.72768 252.15625,472.35268 205.34375,354.5 z"
         transform="matrix(1.2982276,-1.2524962,1.2524962,1.2982276,-933.7684,488.34318)"
         id="path3926"
         style="fill:#ffffff;fill-opacity:0.15957444;stroke:none" />
      <path
         d="m 224.875,304.90625 -8.4375,18.625 34.62946,51.19643 78.38393,160.47768 71.15625,49.84821 93.11161,31.94643 7.5,-0.59375 C 494.7127,613.58312 488.239,610.68663 481.8125,607.6875 462.58933,598.7164 442.97942,590.16428 425.28125,578.46875 408.05244,567.08339 392.19008,553.54568 377.53125,539 366.79157,528.34322 356.44484,516.99686 348.34375,504.21875 339.39324,490.10082 334.17767,473.95679 327.375,458.6875 318.75616,439.34162 311.57738,419.31154 302.21875,400.3125 291.37003,378.28841 282.01419,354.89954 266.34375,336 c -7.41545,-8.94349 -26.75,-22.3125 -26.75,-22.3125 z"
         transform="matrix(1.2982276,-1.2524962,1.2524962,1.2982276,-933.7684,488.34318)"
         id="path3885"
         style="fill:#000000;fill-opacity:0.06382979;stroke:none" />
      <path
         d="m 182.3125,335.5625 -2.125,5.34375 c 0,0 -3.20515,33.725 -1.34375,50.4375 1.71903,15.43427 6.01292,30.61645 11.46875,45.15625 7.36148,19.61834 17.92027,37.93907 28.4375,56.0625 10.86452,18.72188 22.66485,36.95196 35.71875,54.21875 6.19718,8.1972 12.51377,16.37062 19.28125,24.125 L 238.40625,517.75 219.72768,464.72768 199.34821,410.66518 191.9375,365.21875 z"
         transform="matrix(1.2982276,-1.2524962,1.2524962,1.2982276,-933.7684,488.34318)"
         id="path3840"
         style="fill:#ffffff;fill-opacity:0.33510634;stroke:none" />
      <path
         d="m 229.09375,307.4375 -0.8125,17.125 28.3125,27.25 41.66071,78.84375 22.06697,53.04018 25.11607,39.66964 42.46875,32.50893 42.40625,30.8125 21.90625,7 c -9.25266,-4.6158 -18.32521,-9.52747 -26.9375,-15.21875 C 408.05244,567.08339 392.19008,553.54568 377.53125,539 366.79157,528.34322 356.44484,516.99686 348.34375,504.21875 339.39324,490.10082 334.17767,473.95679 327.375,458.6875 318.75616,439.34162 311.57738,419.31154 302.21875,400.3125 291.37003,378.28841 282.01419,354.89954 266.34375,336 c -7.41545,-8.94349 -26.75,-22.3125 -26.75,-22.3125 z"
         transform="matrix(1.2982276,-1.2524962,1.2524962,1.2982276,-933.7684,488.34318)"
         id="path3807"
         style="fill:#000000;fill-opacity:0.12234042;stroke:none" />
      <path
         d="m -226.00369,593.24785 c 2.02031,2.02031 3.34041,11.16447 0.73967,17.80394 -1.43876,3.67304 -4.61178,7.90107 -7.07107,10.98541 -7.18188,9.00723 -11.36075,20.12093 -15.65736,30.80965 -2.16522,5.38643 -4.19977,10.9249 -5.05076,16.66752 -1.45607,9.82587 2.14592,18.30543 -2.14657,23.99112 -2.05404,2.72071 -4.42072,7.78011 -7.44988,9.34391 -3.52122,1.81782 -9.81092,6.71393 -9.81092,6.71393 0,0 -7.41525,-24.64378 -14.93782,-36.00835 -1.45158,-2.19295 -3.05488,-4.34844 -5.05076,-6.06092 -12.3808,-10.62281 -28.81864,-15.5354 -41.92133,-25.25381 -7.46794,-5.53905 -14.1841,-12.063 -20.70813,-18.68782 -5.02302,-5.10063 -9.49333,-10.71857 -14.14214,-16.16244 -5.97731,-6.99958 -12.24945,-13.77973 -17.67767,-21.21321 -6.47275,-8.86388 -12.30042,-18.21101 -17.67766,-27.77919 -5.79147,-10.30525 -10.86109,-21.01542 -15.65737,-31.81981 -5.73353,-12.91568 -10.75233,-26.14345 -15.65736,-39.39595 -4.13968,-11.18466 -8.61839,-22.297 -11.61676,-33.84011 -1.67714,-6.45665 -2.75457,-13.07293 -3.53553,-19.69797 -0.69096,-5.86158 -3.11229,-12.16254 -1.01015,-17.67767 1.10241,-2.89226 5.85485,-3.55355 6.56599,-6.56599 0.73392,-3.10893 -4.13874,-6.09541 -3.03046,-9.09138 1.36238,-3.68286 6.20173,-5.60147 10.10153,-6.06091 6.66297,-0.78497 12.48613,5.88581 19.19289,6.06091 4.69437,0.12256 9.23519,-5.17128 13.63706,-3.53553 2.49527,0.92725 3.75197,4.02509 4.54569,6.56599 1.55617,4.98172 -0.75789,10.49357 0,15.65737 0.51049,3.47817 3.10182,6.58681 3.03046,10.10152 -0.10484,5.16346 -4.00533,9.5896 -5.05077,14.64721 -2.25576,10.91282 -4.08228,22.30082 -2.52538,33.33504 1.95742,13.87283 8.46158,26.82516 14.64721,39.39595 4.90871,9.97576 11.07644,19.33805 17.67767,28.28427 7.7957,10.565 15.39306,21.74085 25.75889,29.7995 8.91635,6.93179 20.00706,10.51417 30.30458,15.15229 12.74195,5.73911 24.91608,15.66284 38.89087,15.65736 10.34824,-0.004 19.08025,-8.04464 29.14649,-10.18818 7.57271,-1.61256 23.14685,-1.93365 23.14685,-1.93365 z"
         id="path3778"
         style="fill:#00d628;fill-opacity:1;stroke:#221f1a;stroke-width:7.21569586;stroke-linecap:butt;stroke-linejoin:miter;stroke-miterlimit:4;stroke-opacity:1;stroke-dasharray:none" />
      <path
         d="m 237.5625,160.34375 -1.0625,5.875 -1.13642,5.78125 -12.38008,11.38594 -10.58867,9.83281 -9.09121,16.40958 -5.20146,17.06123 -3.25841,31.69813 -1.65593,22.6112 10.35231,11.09438 7.45305,16.80886 17.16307,4.03537 6.75,8.9375 c 0.18182,-0.0715 0.36161,-0.14095 0.53125,-0.21875 3.59304,-1.64779 6.55964,-5.82265 6.53125,-7.40625 0,0 -6.32698,-5.85364 -9.96875,-8.125 -4.84092,-3.01927 -11.40132,-3.17488 -15.53125,-7.15625 -5.5773,-5.37661 -6.62559,-14.02487 -9.5,-21.21875 -2.32298,-5.8138 -5.36085,-11.49025 -6.25,-17.6875 -1.03369,-7.2047 0.23117,-14.59712 1.1875,-21.8125 0.8098,-6.10983 1.96246,-12.22463 3.84375,-18.09375 2.37067,-7.39587 4.75385,-15.05584 9.3125,-21.34375 3.62587,-5.0013 8.74356,-8.85835 13.84375,-12.34375 2.36371,-1.61533 5.5958,-1.88666 7.625,-3.90625 1.38126,-1.37471 1.55243,-3.60341 2.6875,-5.1875 1.68515,-2.35179 4.73465,-3.6636 6.03125,-6.25 0.66132,-1.31918 1.35734,-3.01342 0.71875,-4.34375 -1.12652,-2.34683 -4.98687,-1.98803 -6.8125,-3.84375 -0.7123,-0.72404 -1.18359,-1.63375 -1.59375,-2.59375 z"
         transform="matrix(1.2982276,-1.2524962,1.2524962,1.2982276,-933.7684,488.34318)"
         id="path3772"
         style="fill:#000000;fill-opacity:0.18085106;stroke:none" />
      <path
         d="m 229.0625,151.3125 c -0.55307,0.009 -1.10349,0.10753 -1.59375,0.34375 -1.26007,0.60715 -1.04368,2.63455 -1.625,3.9375 l 3.46875,-0.75 1.125,-3.375 c -0.46188,-0.10883 -0.92387,-0.16394 -1.375,-0.15625 z m 1.05803,2.62054 c -0.44255,-0.0297 -9.70103,2.41571 -10.08928,2.59821 -2.96138,1.39114 -4.42582,4.8331 -6.40625,7.4375 -2.23837,2.94362 -4.34022,5.99737 -6.15625,9.21875 -3.24667,5.75913 -5.75286,11.91334 -8.40625,17.96875 -3.14395,7.17495 -6.22247,14.39054 -8.90625,21.75 -2.24508,6.15643 -4.34407,12.37841 -6,18.71875 -1.5375,5.88685 -2.79563,11.87872 -3.625,17.90625 -0.69553,5.05484 -0.81554,10.15692 -1.125,15.25 -0.24068,3.96111 -0.60322,7.93805 -0.5625,11.90625 0.0418,4.07724 0.15964,8.16728 0.625,12.21875 l 3.36152,-10.83201 4.54394,-26.0092 5.57011,-29.80743 14.3961,-36.34121 5.81583,-11.38515 13.40179,-11.08929 2.2366,-4.28125 c -0.87393,0.007 2.2329,-5.16688 1.32589,-5.22767 z m -43.96428,159.91071 c 0.32396,1.47484 0.60745,2.96002 0.75,4.46875 0.13713,1.45139 -0.0476,2.94143 -0.3125,4.375 -1.37304,7.42924 -7.90625,20.09375 -7.90625,20.09375 0,0 4.39556,0.46367 6.5,1.09375 0.17728,0.0531 0.36646,0.10125 0.5625,0.125 l 5.42148,-15.92053 -3.01523,-12.86072 z"
         transform="matrix(1.2982276,-1.2524962,1.2524962,1.2982276,-933.7684,488.34318)"
         id="path3802"
         style="fill:#ffffff;fill-opacity:0.52659577;stroke:none" />
      <path
         d="m 631.28125,658.5 -1.73667,6.74413 -5.76841,6.68893 -32.71367,3.62944 -118.5625,-12.125 -24.1875,0.125 c 12.93908,3.10514 26.02971,5.65928 39.125,7.875 24.63284,4.16787 49.64968,6.44507 74.625,7.0625 20.72031,0.51224 42.35973,3.52488 62.09375,-2.8125 3.3532,-1.07684 7.3802,-2.5611 8.875,-5.75 1.59239,-3.39709 1.76134,-9.03636 -1.3125,-11.1875 -0.14473,-0.10128 -0.28887,-0.17472 -0.4375,-0.25 z"
         transform="matrix(1.2982276,-1.2524962,1.2524962,1.2982276,-933.7684,488.34318)"
         id="path3875"
         style="fill:#000000;fill-opacity:0.19680852;stroke:none" />
      <path
         d="m 506.15625,618.5 18.65625,14.74107 48.16273,21.05489 30.5962,10.75761 16.97321,1.58036 7.29911,-5.35268 0.46875,-2.9375 c -2.96561,0.78248 -6.32416,3.62401 -9.4375,3.4375 -22.17964,-1.32872 -41.87796,-14.8226 -62.5625,-22.9375 C 539.52492,632.25769 522.74131,625.58547 506.15625,618.5 z"
         transform="matrix(1.2982276,-1.2524962,1.2524962,1.2982276,-933.7684,488.34318)"
         id="path3880"
         style="fill:#ffffff;fill-opacity:0.21276598;stroke:none" />
      <path
         d="m -227.34208,595.29996 c 0,0 39.37059,-6.68922 60.19922,-4.36635 44.0154,4.90873 85.473658,23.56713 127.14286,38.57143 35.945859,12.94343 70.294427,29.96542 105.714286,44.28571 27.956144,11.3027 54.983254,25.73934 84.285714,32.85715 26.52159,6.44231 54.13845,8.18791 81.42857,8.57143 37.24891,0.52348 74.80154,-1.7732 111.42857,-8.57143 37.62487,-6.98343 73.80768,-20.42673 110,-32.85715 45.91544,-15.76988 90.87857,-34.23795 135.71429,-52.85714 37.01713,-15.37232 79.54156,-22.5165 110,-48.57143 6.02251,-5.15181 5.02906,-18.76188 12.85714,-20 6.68484,-1.0573 13.52673,6.45249 15.71429,12.85715 2.05349,6.01215 -1.28125,12.97357 -4.28572,18.57142 -17.6817,32.94414 -49.60159,56.14147 -77.14285,81.42858 C 612.51731,695.69926 577.19927,724.06335 540,749.50504 500.89944,776.24708 460.24019,801.27119 417.14286,820.93361 363.57429,845.37336 307.30802,864.56039 250,878.07647 c -24.31806,5.73541 -49.30627,9.46097 -74.28571,10 -31.55083,0.68083 -63.1107,-3.6687 -94.285719,-8.57143 C 42.855043,873.43878 4.6965554,864.48824 -32.857143,853.79075 -69.210422,843.43521 -105.87123,832.89675 -140,816.6479 c -25.29395,-12.04256 -49.86551,-26.4016 -71.42857,-44.28572 -23.34886,-19.36523 -61.42857,-67.14285 -61.42857,-67.14285"
         id="path3981"
         style="fill:none;stroke:#22201a;stroke-width:10.82354355;stroke-linecap:butt;stroke-linejoin:miter;stroke-miterlimit:4;stroke-opacity:1;stroke-dasharray:none" />
      <path
         d="m -226.00369,593.24785 c 2.02031,2.02031 3.34041,11.16447 0.73967,17.80394 -1.43876,3.67304 -4.61178,7.90107 -7.07107,10.98541 -7.18188,9.00723 -11.36075,20.12093 -15.65736,30.80965 -2.16522,5.38643 -4.19977,10.9249 -5.05076,16.66752 -1.45607,9.82587 2.14592,18.30543 -2.14657,23.99112 -2.05404,2.72071 -4.42072,7.78011 -7.44988,9.34391 -3.52122,1.81782 -9.81092,6.71393 -9.81092,6.71393 0,0 -7.41525,-24.64378 -14.93782,-36.00835 -1.45158,-2.19295 -3.05488,-4.34844 -5.05076,-6.06092 -12.3808,-10.62281 -28.81864,-15.5354 -41.92133,-25.25381 -7.46794,-5.53905 -14.1841,-12.063 -20.70813,-18.68782 -5.02302,-5.10063 -9.49333,-10.71857 -14.14214,-16.16244 -5.97731,-6.99958 -12.24945,-13.77973 -17.67767,-21.21321 -6.47275,-8.86388 -12.30042,-18.21101 -17.67766,-27.77919 -5.79147,-10.30525 -10.86109,-21.01542 -15.65737,-31.81981 -5.73353,-12.91568 -10.75233,-26.14345 -15.65736,-39.39595 -4.13968,-11.18466 -8.61839,-22.297 -11.61676,-33.84011 -1.67714,-6.45665 -2.75457,-13.07293 -3.53553,-19.69797 -0.69096,-5.86158 -3.11229,-12.16254 -1.01015,-17.67767 1.10241,-2.89226 5.85485,-3.55355 6.56599,-6.56599 0.73392,-3.10893 -4.13874,-6.09541 -3.03046,-9.09138 1.36238,-3.68286 6.20173,-5.60147 10.10153,-6.06091 6.66297,-0.78497 12.48613,5.88581 19.19289,6.06091 4.69437,0.12256 9.23519,-5.17128 13.63706,-3.53553 2.49527,0.92725 3.75197,4.02509 4.54569,6.56599 1.55617,4.98172 -0.75789,10.49357 0,15.65737 0.51049,3.47817 3.10182,6.58681 3.03046,10.10152 -0.10484,5.16346 -4.00533,9.5896 -5.05077,14.64721 -2.25576,10.91282 -4.08228,22.30082 -2.52538,33.33504 1.95742,13.87283 8.46158,26.82516 14.64721,39.39595 4.90871,9.97576 11.07644,19.33805 17.67767,28.28427 7.7957,10.565 15.39306,21.74085 25.75889,29.7995 8.91635,6.93179 20.00706,10.51417 30.30458,15.15229 12.74195,5.73911 24.91608,15.66284 38.89087,15.65736 10.34824,-0.004 19.08025,-8.04464 29.14649,-10.18818 7.57271,-1.61256 23.14685,-1.93365 23.14685,-1.93365 z"
         id="path3983"
         style="fill:none;stroke:#22201a;stroke-width:10.82354355;stroke-linecap:butt;stroke-linejoin:miter;stroke-miterlimit:4;stroke-opacity:1;stroke-dasharray:none" />
    </g>
  </g>
</svg>
